<mxfile host="app.diagrams.net" modified="2024-02-14T16:59:00.696Z" agent="Mozilla/5.0 (Windows NT 10.0; Win64; x64; rv:122.0) Gecko/20100101 Firefox/122.0" version="22.1.21" etag="AWC2fXI6N04NBjxk-cjD" type="github">
  <diagram name="Page-1" id="i4OaaDs5sPG36X36saTw">
    <mxGraphModel>
      <root>
        <mxCell id="0" />
        <mxCell id="1" parent="0" />
      </root>
    </mxGraphModel>
  </diagram>
</mxfile>
